<?xml version="1.0" ?>
<!DOCTYPE svg  PUBLIC '-//W3C//DTD SVG 1.1//EN'  'http://www.w3.org/Graphics/SVG/1.1/DTD/svg11.dtd'>

<svg width="214" height="58" viewBox="0 0 214 58" fill="#000" xmlns="http://www.w3.org/2000/svg">
    <path fill-rule="evenodd" clip-rule="evenodd" d="M53.8615 39.6112V28.3034C53.8615 25.0957 52.122 23.5728 49.2009 23.5728C46.772 23.5728 44.6715 24.9985 43.7524 26.424C43.1616 24.642 41.6846 23.5728 39.3543 23.5728C36.9254 23.5728 34.825 25.0632 34.1684 26.0028V23.9618H30V39.6112H34.1684V29.0811C34.7921 28.2062 36.0065 27.2342 37.4505 27.2342C39.1573 27.2342 39.8137 28.2709 39.8137 29.7291V39.6112H44.015V29.0487C44.6058 28.2062 45.8202 27.2342 47.2971 27.2342C49.0039 27.2342 49.6603 28.2709 49.6603 29.7291L49.6604 39.6112H53.8615ZM65.3165 40C60.0978 40 56.9468 36.2415 56.9468 31.7703C56.9468 27.3313 60.0977 23.573 65.3165 23.573C70.5679 23.573 73.719 27.3315 73.719 31.7703C73.719 36.2415 70.5681 40 65.3165 40ZM65.3165 36.3388C67.9093 36.3388 69.3864 34.2327 69.3864 31.7703C69.3864 29.3403 67.9095 27.2342 65.3165 27.2342C62.7234 27.2342 61.2793 29.3403 61.2793 31.7703C61.2793 34.2327 62.7236 36.3388 65.3165 36.3388ZM91.6726 39.6112V28.5626C91.6726 25.5169 89.9987 23.5728 86.5195 23.5728C83.9267 23.5728 81.9902 24.804 80.9726 26.0028V23.9618H76.8041V39.6112H80.9726V29.0811C81.6619 28.1415 82.942 27.2342 84.5831 27.2342C86.3554 27.2342 87.5042 27.9795 87.5042 30.1503V39.6112H91.6726ZM103.16 40C97.9416 40 94.7906 36.2415 94.7906 31.7703C94.7906 27.3313 97.9415 23.573 103.16 23.573C108.412 23.573 111.563 27.3315 111.563 31.7703C111.563 36.2415 108.412 40 103.16 40ZM103.16 36.3388C105.753 36.3388 107.23 34.2327 107.23 31.7703C107.23 29.3403 105.753 27.2342 103.16 27.2342C100.567 27.2342 99.1231 29.3403 99.1231 31.7703C99.1231 34.2327 100.567 36.3388 103.16 36.3388ZM118.816 34.589C119.506 35.5935 121.048 36.3386 122.394 36.3386C124.823 36.3386 126.431 34.5242 126.431 31.8025C126.431 29.0809 124.823 27.234 122.394 27.234C121.048 27.234 119.506 28.0116 118.816 29.0485V34.589ZM118.816 39.6112H114.648V18H118.816V25.9705C120.063 24.383 121.836 23.5728 123.707 23.5728C127.744 23.5728 130.731 26.6832 130.731 31.8025C130.731 37.019 127.711 39.9998 123.707 39.9998C121.803 39.9998 120.063 39.1574 118.816 37.6021V39.6112ZM147.568 39.6112H143.4V37.9912C142.317 39.2549 140.446 40 138.378 40C135.851 40 132.864 38.3151 132.864 34.8159C132.864 31.1547 135.851 29.7615 138.378 29.7615C140.479 29.7615 142.35 30.4419 143.4 31.6731V29.567C143.4 27.9795 142.022 26.9426 139.921 26.9426C138.214 26.9426 136.639 27.5583 135.293 28.7895L133.717 26.0354C135.654 24.3505 138.148 23.573 140.643 23.573C144.253 23.573 147.568 24.9987 147.568 29.5023L147.568 39.6112ZM140.052 37.2135C141.398 37.2135 142.711 36.7598 143.4 35.8527V33.9086C142.711 33.0015 141.398 32.5478 140.052 32.5478C138.411 32.5478 137.065 33.3903 137.065 34.9131C137.065 36.3711 138.411 37.2135 140.052 37.2135ZM166.572 39.6112V28.5626C166.572 25.5169 164.898 23.5728 161.419 23.5728C158.826 23.5728 156.89 24.804 155.872 26.0028V23.9618H151.704V39.6112H155.872V29.0811C156.562 28.1415 157.842 27.2342 159.483 27.2342C161.255 27.2342 162.404 27.9795 162.404 30.1503V39.6112H166.572ZM186.2 39.6112L179.734 31.0574L186.003 23.9618H180.883L174.876 30.9278V18H170.708V39.6112H174.876V35.5935L176.78 33.5847L180.981 39.6112H186.2Z"/>
</svg>
