<?xml version="1.0" ?>
<!DOCTYPE svg  PUBLIC '-//W3C//DTD SVG 1.1//EN'  'http://www.w3.org/Graphics/SVG/1.1/DTD/svg11.dtd'>

<svg width="214" height="58" viewBox="0 0 214 58" fill="#000" xmlns="http://www.w3.org/2000/svg">
    <path fill-rule="evenodd" clip-rule="evenodd" d="M116.887 17.0012H125.081C127.823 17.0012 129.888 17.7248 131.051 19.093C132.111 20.3389 132.465 22.118 132.097 24.3823C131.282 29.5577 128.168 32.1694 122.77 32.1694H120.178C119.906 32.1696 119.644 32.2666 119.438 32.443C119.232 32.6194 119.096 32.8635 119.054 33.1315L118.113 39.0869C118.084 39.2743 117.989 39.4451 117.845 39.5685C117.701 39.6919 117.517 39.7599 117.328 39.7602H113.122C113.024 39.7602 112.927 39.7388 112.837 39.6975C112.748 39.6563 112.668 39.5961 112.604 39.5212C112.54 39.4463 112.493 39.3584 112.466 39.2635C112.44 39.1687 112.434 39.0692 112.449 38.9719L115.763 17.962C115.805 17.6943 115.941 17.4504 116.147 17.2743C116.353 17.0981 116.616 17.0013 116.887 17.0012ZM121.16 27.6145C123.333 27.6145 125.58 27.6145 126.026 24.6746C126.191 23.6419 126.06 22.8943 125.63 22.3911C124.909 21.5477 123.512 21.5477 122.033 21.5477H121.467C121.304 21.5475 121.147 21.6055 121.023 21.7112C120.9 21.8169 120.818 21.9633 120.793 22.124L119.925 27.6145H121.16Z"/>
    <path fill-rule="evenodd" clip-rule="evenodd" d="M145.65 24.5799H149.571C149.67 24.5798 149.768 24.6011 149.857 24.6422C149.947 24.6834 150.027 24.7435 150.091 24.8184C150.155 24.8933 150.203 24.9812 150.23 25.0761C150.257 25.171 150.263 25.2707 150.248 25.3682L148.126 38.7969C148.084 39.0649 147.948 39.309 147.742 39.4854C147.536 39.6618 147.274 39.7588 147.003 39.759H143.47C143.371 39.7592 143.273 39.7379 143.183 39.6966C143.093 39.6553 143.013 39.5949 142.949 39.5197C142.885 39.4445 142.838 39.3563 142.811 39.2611C142.784 39.1658 142.778 39.0659 142.794 38.9683L142.969 37.8781C142.969 37.8781 141.032 40.1244 137.538 40.1244C135.503 40.1244 133.794 39.5373 132.596 38.1284C131.293 36.5962 130.762 34.399 131.136 32.1012C131.857 27.4947 135.559 24.2109 139.895 24.2109C141.785 24.2109 143.678 24.6231 144.528 25.8558L144.803 26.2536L144.977 25.1562C145.001 24.9954 145.083 24.8489 145.207 24.7431C145.33 24.6374 145.487 24.5795 145.65 24.5799ZM139.676 35.9624C141.945 35.9624 143.726 34.4577 144.102 32.2162C144.276 31.1308 144.039 30.146 143.439 29.4403C142.842 28.7419 141.936 28.3717 140.822 28.3717C138.588 28.3717 136.781 29.9255 136.425 32.1479C136.243 33.2381 136.461 34.2169 137.041 34.9045C137.626 35.597 138.539 35.9624 139.676 35.9624Z"/>
    <path d="M150.834 38.9719L154.197 17.5774C154.222 17.4169 154.304 17.2706 154.427 17.1648C154.551 17.059 154.708 17.0006 154.87 17H158.656C158.755 17.0002 158.852 17.0217 158.941 17.0631C159.031 17.1045 159.11 17.1647 159.174 17.2398C159.238 17.3148 159.285 17.4028 159.312 17.4977C159.339 17.5926 159.345 17.6921 159.329 17.7895L156.013 38.7981C155.927 39.3528 155.45 39.7602 154.888 39.7602H151.507C151.409 39.7602 151.311 39.7388 151.222 39.6975C151.132 39.6563 151.053 39.5961 150.989 39.5212C150.925 39.4463 150.878 39.3584 150.851 39.2635C150.824 39.1687 150.819 39.0692 150.834 38.9719Z"/>
    <path fill-rule="evenodd" clip-rule="evenodd" d="M58.4469 17.0015H66.6402C69.3825 17.0015 71.4479 17.7251 72.6124 19.0932C73.6726 20.3392 74.0237 22.1182 73.6571 24.3825C72.8436 29.558 69.7287 32.1697 64.3316 32.1697H61.7379C61.4667 32.1699 61.2044 32.2669 60.9984 32.4433C60.7924 32.6196 60.6561 32.8638 60.6141 33.1317L59.7204 38.7984C59.6784 39.0666 59.5419 39.3109 59.3357 39.4873C59.1294 39.6637 58.8669 39.7606 58.5954 39.7604H54.6839C54.5852 39.7606 54.4877 39.7393 54.398 39.6982C54.3083 39.657 54.2286 39.5969 54.1644 39.522C54.1002 39.447 54.053 39.3591 54.026 39.2642C53.999 39.1693 53.993 39.0696 54.0082 38.9721L57.3219 17.9623C57.3642 17.6944 57.5008 17.4503 57.707 17.2742C57.9133 17.098 58.1756 17.0013 58.4469 17.0015ZM62.7191 27.6148C64.8911 27.6148 67.1374 27.6148 67.5855 24.6748C67.7496 23.6421 67.6178 22.8946 67.1877 22.3914C66.4665 21.548 65.0708 21.548 63.5912 21.548H63.0246C62.8619 21.548 62.7046 21.606 62.581 21.7117C62.4573 21.8173 62.3755 21.9636 62.3501 22.1242L61.4827 27.6148H62.7191Z"/>
    <path fill-rule="evenodd" clip-rule="evenodd" d="M87.208 24.5802H91.1315C91.23 24.5802 91.3274 24.6015 91.4168 24.6428C91.5062 24.684 91.5857 24.7442 91.6496 24.8192C91.7135 24.8941 91.7603 24.9821 91.7869 25.0769C91.8135 25.1718 91.8192 25.2712 91.8036 25.3685L89.6831 38.7972C89.6411 39.0654 89.5047 39.3097 89.2984 39.4861C89.0921 39.6625 88.8296 39.7594 88.5582 39.7592H85.024C84.9253 39.7591 84.8278 39.7375 84.7382 39.6961C84.6486 39.6546 84.5691 39.5942 84.5051 39.5191C84.4411 39.4439 84.3941 39.3558 84.3675 39.2607C84.3408 39.1657 84.3351 39.066 84.3507 38.9685L84.5256 37.8783C84.5256 37.8783 82.5884 40.1246 79.0949 40.1246C77.0595 40.1246 75.3487 39.5376 74.1531 38.1287C72.8496 36.5964 72.3165 34.3992 72.6915 32.1014C73.4127 27.495 77.1158 24.2112 81.4515 24.2112C83.3419 24.2112 85.236 24.6233 86.0854 25.8561L86.3598 26.2538L86.5335 25.1565C86.5589 24.9958 86.6408 24.8495 86.7644 24.7439C86.8881 24.6382 87.0454 24.5802 87.208 24.5802ZM81.2358 35.9627C83.5049 35.9627 85.284 34.458 85.6625 32.2164C85.8338 31.131 85.5966 30.1462 84.9988 29.4406C84.4022 28.7422 83.4965 28.372 82.3823 28.372C80.148 28.372 78.339 29.9258 77.9855 32.1482C77.8011 33.2384 78.0215 34.2171 78.6013 34.9048C79.186 35.5973 80.0965 35.9627 81.2358 35.9627Z"/>
    <path d="M108.085 24.5802H112.028C112.152 24.5803 112.274 24.6144 112.381 24.679C112.488 24.7436 112.575 24.8362 112.632 24.9466C112.69 25.0571 112.717 25.1813 112.709 25.3057C112.701 25.4301 112.659 25.55 112.588 25.6524L99.4746 44.5813C99.3698 44.7324 99.2299 44.8557 99.0669 44.9409C98.904 45.026 98.7228 45.0704 98.5389 45.0701H94.601C94.4757 45.0702 94.3528 45.0357 94.2457 44.9706C94.1386 44.9054 94.0516 44.812 93.994 44.7007C93.9365 44.5893 93.9107 44.4643 93.9195 44.3393C93.9283 44.2142 93.9714 44.0941 94.0439 43.9919L98.1268 38.2281L93.784 25.4835C93.7489 25.3806 93.7388 25.2707 93.7548 25.1632C93.7707 25.0556 93.8121 24.9533 93.8755 24.865C93.9389 24.7766 94.0224 24.7047 94.1193 24.6551C94.2161 24.6056 94.3233 24.5799 94.4321 24.5802H98.3065C98.5517 24.5803 98.7904 24.6594 98.9871 24.8057C99.1839 24.9519 99.3284 25.1577 99.3991 25.3925L101.704 33.0898L107.142 25.0798C107.247 24.9261 107.387 24.8003 107.552 24.7132C107.716 24.6262 107.899 24.5805 108.085 24.5802Z"/>
</svg>
