<?xml version="1.0" ?>
<!DOCTYPE svg  PUBLIC '-//W3C//DTD SVG 1.1//EN'  'http://www.w3.org/Graphics/SVG/1.1/DTD/svg11.dtd'>

<svg width="214" height="58" viewBox="0 0 214 58" fill="#000" xmlns="http://www.w3.org/2000/svg">
    <path d="M44.8945 41.0322H39.964V23.6154H57.7011V41.0322H52.7705V26.9963H44.8817V41.0322H44.8945Z"/>
    <path d="M64.4246 34.6805C64.4246 31.1458 66.6017 30.4543 67.9848 30.4543C69.3295 30.4543 71.5066 31.1458 71.5066 34.6805C71.5066 36.8704 70.5845 38.9578 67.9848 38.9578C65.3338 38.9706 64.4246 36.8704 64.4246 34.6805ZM60.096 28.3796V45.63H64.6423V39.7262C66.1662 41.3655 68.6379 41.4935 69.2398 41.4935C73.5684 41.4935 76.2322 38.7273 76.2322 34.7189C76.2322 30.5439 73.6068 27.9058 69.3295 27.9058C68.2537 27.9058 66.1662 28.0851 64.4246 29.9036H64.3349L64.3605 28.3796H60.096Z"/>
    <path d="M87.489 39.5085C85.8114 41.0709 84.2106 41.4936 82.4176 41.4936C77.5256 41.4936 77.3463 37.8053 77.3463 36.2941V28.3797H81.8798V35.6922C81.8798 38.2023 82.7506 38.9579 84.4155 38.9579C87.2841 38.9579 87.489 36.3966 87.489 35.4745V28.3797H92.0354V41.0197H87.489V39.5085Z"/>
    <path d="M98.5411 30.9282H100.987C102.268 30.9282 103.382 31.1331 103.382 32.1704C103.382 33.323 101.653 33.3358 100.91 33.3358H98.5539V30.9282H98.5411ZM93.9948 28.3797V41.0197H103.011C106.302 41.0197 108.569 40.3666 108.569 37.7797C108.569 35.7947 107.467 34.9238 104.957 34.4756V34.3987C106.596 34.181 108.031 33.1565 108.031 31.4404C108.031 28.3797 104.445 28.3797 103.049 28.3797H93.9948ZM98.5411 35.705H101.32C103.472 35.705 103.92 36.3581 103.92 37.2034C103.92 37.7541 103.625 38.4968 101.384 38.4968H98.5539V35.705H98.5411Z"/>
    <path d="M119.557 35.8074C119.557 38.3431 117.341 38.9707 116.24 38.9707C115.407 38.9707 113.909 38.7017 113.909 37.4979C113.909 36.0764 115.612 35.8074 116.573 35.6794C118.34 35.4361 118.186 35.5001 119.557 35.0134V35.8074ZM114.306 32.4649C114.306 30.5952 116.278 30.4543 117.085 30.4543C117.597 30.4543 119.48 30.4799 119.531 32.1192C119.531 32.2472 119.531 32.3369 119.531 32.4649C119.441 33.7072 118.25 33.4639 114.908 33.8865C112.154 34.2579 109.26 34.9622 109.26 37.8437C109.26 38.8938 109.708 41.5064 114.549 41.5064C116.406 41.5064 118.43 41.0325 119.621 39.7903H119.71L120.095 41.0325H124.871V40.8148C124.001 40.6355 123.949 39.7903 123.975 38.42L124.065 32.6442C124.09 31.1715 123.949 27.9186 117.111 27.9186C115.471 27.9186 110.182 28.0723 109.977 32.4777H114.306V32.4649Z"/>
    <path d="M124.577 30.9282V28.3925H139.151V30.9282H134.131V41.0325H129.597V30.9282H124.577Z"/>
    <path d="M144.952 33.4636H149.037C150.228 33.4636 152.623 33.5916 152.623 35.6791C152.623 37.3183 150.894 37.6513 148.948 37.6513H144.952V33.4636ZM144.952 26.9963H156.273V23.6154H140.021V41.0322H149.998C154.839 41.0322 157.938 39.3418 157.938 35.7816C157.938 30.2107 151.727 30.0827 149.998 30.0827H144.952V26.9963Z"/>
    <path d="M169.105 35.8074C169.105 38.3431 166.89 38.9707 165.788 38.9707C164.956 38.9707 163.457 38.7017 163.457 37.4979C163.457 36.0764 165.161 35.8074 166.108 35.6794C167.876 35.4361 167.722 35.5001 169.092 35.0134V35.8074H169.105ZM163.854 32.4649C163.854 30.5952 165.827 30.4543 166.633 30.4543C167.146 30.4543 169.028 30.4799 169.08 32.1192C169.08 32.2472 169.08 32.3369 169.08 32.4649C168.99 33.7072 167.799 33.4639 164.444 33.8865C161.703 34.2579 158.796 34.9622 158.796 37.8437C158.796 38.8938 159.244 41.5064 164.085 41.5064C165.942 41.5064 167.965 41.0325 169.156 39.7903H169.246L169.63 41.0325H174.407V40.8148C173.549 40.6355 173.485 39.7903 173.511 38.42L173.6 32.6442C173.626 31.1715 173.485 27.9186 166.646 27.9186C165.007 27.9186 159.718 28.0723 159.513 32.4777H163.854V32.4649Z"/>
    <path d="M180.106 41.0325H175.572V28.3925H180.106V33.1437H185.574V28.3925H190.108V41.0325H185.574V35.6794H180.106V41.0325Z"/>
    <path d="M201.57 28.3797H206.615L200.379 34.3091L206.923 41.0325H201.608L196.716 35.5129H196.626V41.0325H192.093V28.3925H196.626V33.4767H196.716L201.57 28.3797Z"/>
    <path d="M18.3722 29.6985H7V41.0707H18.3722V29.6985Z"/>
    <path d="M7.01283 12V26.1512H10.0224C17.9368 26.1512 21.9453 30.1597 21.9453 38.0741V41.0836H36.0965V12H7.01283ZM30.0902 18.0063C30.0902 21.8738 30.0902 31.197 30.0902 35.0646C29.0145 35.0646 28.8224 35.0646 27.7722 35.0646C26.7733 26.6251 21.4714 21.3232 13.0319 20.3242C13.0319 19.2741 13.0319 19.082 13.0319 18.0063C16.8867 18.0063 26.2226 18.0063 30.0902 18.0063Z"/>
</svg>
