<?xml version="1.0" ?>
<!DOCTYPE svg  PUBLIC '-//W3C//DTD SVG 1.1//EN'  'http://www.w3.org/Graphics/SVG/1.1/DTD/svg11.dtd'>

<svg width="214" height="58" viewBox="0 0 214 58" fill="#000" xmlns="http://www.w3.org/2000/svg">
    <path d="M122.464 26.3753C120.711 24.8609 118.595 24.1208 116.148 24.1208C113.735 24.1208 111.619 24.8622 109.865 26.3753C108.112 27.8567 107.221 29.9189 107.221 32.5604C107.221 35.202 108.112 37.2629 109.865 38.7772C111.618 40.2587 113.735 41 116.148 41C118.595 41 120.711 40.2587 122.464 38.7772C124.25 37.2629 125.141 35.202 125.141 32.5604C125.141 29.9188 124.249 27.8568 122.464 26.3753ZM112.843 35.9421C111.918 35.073 111.453 33.9445 111.453 32.5604C111.453 31.1752 111.915 30.0479 112.843 29.2104C113.768 28.3412 114.86 27.9224 116.147 27.9224C117.434 27.9224 118.56 28.3412 119.486 29.2104C120.443 30.0479 120.908 31.1752 120.908 32.5604C120.908 33.9457 120.446 35.073 119.486 35.9421C118.561 36.7795 117.436 37.1984 116.147 37.1984C114.86 37.1984 113.77 36.7796 112.843 35.9421ZM131.393 40.5479V18.4441H127.227V40.5479H131.393ZM144.84 24.5709V33.3903C144.84 35.5157 143.661 36.9241 141.417 36.9241C139.135 36.9241 137.987 35.5169 137.987 33.3903V24.5709H133.813V34.0671C133.813 37.7458 136.194 40.9985 141.417 40.9985H141.449C146.64 40.9985 149.016 37.674 149.016 34.0671V24.5709H144.84ZM102.786 24.5709L98.6203 35.394L94.4543 24.5709H90.0239L96.6715 40.5481H100.574L107.22 24.5709H102.786ZM90.0454 32.1088C90.0454 29.7898 89.2856 27.8896 87.7972 26.3753C86.3086 24.8609 84.3935 24.1208 82.0454 24.1208C79.6325 24.1208 77.5812 24.9267 75.8944 26.5043C74.24 28.0832 73.4154 30.0795 73.4154 32.5604C73.4154 35.0413 74.2412 37.0706 75.862 38.6482C77.5164 40.227 79.5002 41 81.847 41C85.4528 41 87.998 39.4541 89.5488 36.3292L86.4421 34.5896C85.4191 36.5544 83.9294 37.5209 81.9132 37.5209C79.4341 37.5209 77.6811 35.975 77.4165 33.527H90.0443V32.1088H90.0454ZM81.9107 27.2128C84.2576 27.2128 85.8133 28.5007 86.2088 30.5629H77.4141C78.0441 28.6626 79.761 27.2128 81.9107 27.2128ZM73.4155 40.5482L67.8259 31.0143C71.3618 29.758 73.1147 27.5681 73.1147 24.3787C73.1186 20.4808 69.942 18 64.884 18H55V40.5482H59.3643V31.4001H63.0686L68.4235 40.5482H73.4155ZM64.884 21.7359C67.4629 21.7359 68.7531 22.7341 68.7531 24.6989C68.7531 26.6636 67.4617 27.6618 64.884 27.6618H59.3643V21.7359H64.884ZM156.079 40.9986C153.397 40.9986 151.223 38.8792 151.223 36.2632V20.2546H155.388V24.5771H158.96V27.8627H155.388V36.0028C155.388 36.7697 156.026 37.3904 156.814 37.3904H158.96V40.9986H156.079Z"/>
</svg>
