<?xml version="1.0" ?>
<!DOCTYPE svg  PUBLIC '-//W3C//DTD SVG 1.1//EN'  'http://www.w3.org/Graphics/SVG/1.1/DTD/svg11.dtd'>

<svg width="214" height="58" viewBox="0 0 214 58" fill="#000" xmlns="http://www.w3.org/2000/svg">
    <path fill-rule="evenodd" clip-rule="evenodd" d="M140.012 10C129.503 10 121.013 18.5202 121.013 29.0314C121.013 32.5588 121.967 35.859 123.679 38.6921V39.2567C123.679 45.7009 118.944 47.7881 118.944 47.7881C118.944 47.7881 125.636 47.8578 129.179 44.7207H129.182C129.214 44.7207 129.254 44.6733 129.3 44.6733C129.345 44.6733 129.385 44.7194 129.418 44.7194H129.422C132.45 47.0031 136.092 48 140.012 48C150.524 48 159.044 39.5091 159.044 28.9993C159.044 18.4895 150.522 10 140.011 10" fill="#D0D0D0"/>
    <path fill-rule="evenodd" clip-rule="evenodd" d="M130.969 31.2817C130.223 31.2817 129.865 30.9512 129.865 30.2039C129.865 29.5682 130.223 29.1819 130.969 29.1819H130.997V28.6563C130.997 28.3524 130.997 28.0205 131.025 27.6901H130.969C130.223 27.6901 129.865 27.3569 129.865 26.611C129.865 25.9752 130.223 25.589 130.969 25.589H131.329C131.721 23.9487 132.541 22.4419 133.706 21.2222C135.558 19.2591 137.879 18.2915 140.672 18.2915C142.303 18.2915 143.739 18.6234 144.955 19.3149C146.199 19.9786 146.806 20.7789 146.834 21.6921C146.834 22.88 146.088 23.9577 145.011 23.9856C144.485 24.0135 143.877 23.7918 143.187 23.3777C142.495 22.9358 141.667 22.7141 140.698 22.7141C139.123 22.7141 137.879 23.2676 136.967 24.3453C136.658 24.7258 136.398 25.1436 136.194 25.589H140.422C141.114 25.589 141.528 25.9752 141.528 26.611C141.528 27.3569 141.114 27.6901 140.422 27.6901H135.668C135.64 28.0205 135.612 28.3524 135.612 28.6563V29.1819H138.819C139.483 29.1819 139.898 29.5682 139.898 30.2039C139.898 30.9512 139.483 31.2831 138.819 31.2831H136.055C136.277 31.8631 136.581 32.3887 136.967 32.8586C137.879 33.9363 139.124 34.4884 140.698 34.4884C141.666 34.4884 142.495 34.2667 143.187 33.8527C143.877 33.4107 144.485 33.1904 145.011 33.2169C146.088 33.2448 146.834 34.3504 146.834 35.4839C146.806 36.4236 146.199 37.2239 144.955 37.9155C143.739 38.5791 142.302 38.911 140.672 38.911C137.879 38.911 135.558 37.9434 133.706 35.9817C132.463 34.6543 131.661 33.0788 131.247 31.2831H130.969V31.2817Z"/>
    <path fill-rule="evenodd" clip-rule="evenodd" d="M57.3841 22.2916C55.8867 22.2916 55 21.4969 55 20.0316C55 18.5341 55.8867 17.7394 57.3841 17.7394H68.2913C69.7873 17.7394 70.674 18.5341 70.674 20.0009C70.674 21.4983 69.7873 22.2916 68.2899 22.2916H65.3285V36.4682C65.3285 38.5777 64.2898 39.4631 62.8537 39.4631C61.387 39.4631 60.379 38.5777 60.379 36.4682V22.2916H57.3841ZM75.2569 17.7394C76.693 17.7394 77.7317 18.6262 77.7317 20.7343V36.4682C77.7317 38.5763 76.693 39.4631 75.2569 39.4631C73.7902 39.4631 72.7821 38.5763 72.7821 36.4682V21.0089C72.7821 18.5341 73.7902 17.7394 75.2569 17.7394ZM86.2561 30.908V36.4682C86.2561 38.5763 85.2173 39.4631 83.7813 39.4631C82.3145 39.4631 81.3065 38.5763 81.3065 36.4682V20.7343C81.3065 18.6262 82.3145 17.7408 83.7813 17.7408C85.2173 17.7408 86.2561 18.6262 86.2561 20.7343V25.8971L92.8857 19.1462C94.3217 17.5568 95.6658 17.6181 96.6125 18.3822C97.5912 19.1462 97.8352 20.7036 96.4591 22.1703L89.8309 28.4026L96.9192 35.0015C97.7139 35.7655 98.1099 36.4989 98.1099 37.1403C98.1099 37.7816 97.8966 38.3323 97.4992 38.791C97.285 39.0101 97.0281 39.1829 96.7443 39.2985C96.4606 39.4141 96.1561 39.4701 95.8498 39.4631C95.2085 39.4631 94.5044 39.0964 93.7417 38.3337L86.2547 30.908H86.2561ZM105.993 30.908V36.4682C105.993 38.5763 104.954 39.4631 103.518 39.4631C102.051 39.4631 101.043 38.5763 101.043 36.4682V20.7343C101.043 18.6262 102.051 17.7408 103.518 17.7408C104.954 17.7408 105.993 18.6262 105.993 20.7343V25.8971L112.623 19.1462C114.059 17.5568 115.404 17.6181 116.351 18.3822C117.328 19.1462 117.572 20.7036 116.197 22.1703L109.568 28.4026L116.656 35.0015C117.451 35.7655 117.848 36.4989 117.848 37.1403C117.848 37.7816 117.633 38.3323 117.236 38.791C117.022 39.0101 116.765 39.1829 116.481 39.2985C116.197 39.4141 115.893 39.4701 115.587 39.4631C114.945 39.4631 114.243 39.0964 113.479 38.3337L105.993 30.908ZM123.256 17.7394C124.692 17.7394 125.731 18.6262 125.731 20.7343V36.4682C125.731 38.5763 124.692 39.4631 123.256 39.4631C121.79 39.4631 120.782 38.5763 120.782 36.4682V21.0089C120.782 18.5341 121.79 17.7394 123.256 17.7394Z"/>
</svg>
